<svg width="16" height="17" viewBox="0 0 16 17" fill="none" xmlns="http://www.w3.org/2000/svg">
<path d="M14.1891 6.16534L10.2219 5.58878L8.44847 1.99346C8.40003 1.89503 8.32034 1.81534 8.2219 1.7669C7.97503 1.64503 7.67503 1.74659 7.55159 1.99346L5.77815 5.58878L1.81097 6.16534C1.70159 6.18096 1.60159 6.23253 1.52503 6.31065C1.43247 6.40579 1.38146 6.53378 1.38322 6.6665C1.38498 6.79922 1.43936 6.92581 1.5344 7.01846L4.40472 9.8169L3.72659 13.7685C3.71069 13.8604 3.72086 13.9549 3.75595 14.0414C3.79105 14.1278 3.84966 14.2027 3.92514 14.2575C4.00062 14.3123 4.08995 14.3449 4.183 14.3515C4.27605 14.3582 4.3691 14.3386 4.45159 14.295L8.00003 12.4294L11.5485 14.295C11.6453 14.3466 11.7578 14.3638 11.8657 14.345C12.1375 14.2982 12.3203 14.0403 12.2735 13.7685L11.5953 9.8169L14.4657 7.01846C14.5438 6.9419 14.5953 6.8419 14.611 6.73253C14.6532 6.45909 14.4625 6.20596 14.1891 6.16534Z" fill="#FEA250"/>
</svg>
