<svg width="72" height="72" viewBox="0 0 72 72" fill="none" xmlns="http://www.w3.org/2000/svg">
<g filter="url(#filter0_d_73_34)">
<path d="M36 5C45.9411 5 54 13.0589 54 23C54 32.9411 45.9411 41 36 41C26.0589 41 18 32.9411 18 23C18 13.0589 26.0589 5 36 5ZM31.7998 13C30.2616 13.0001 28.7869 13.6116 27.6992 14.6992C26.6116 15.7869 26.0001 17.2616 26 18.7998V27.2002C26.0001 30.4 28.6 32.9999 31.7998 33H40.2002C41.7384 32.9999 43.2131 32.3884 44.3008 31.3008C45.3884 30.2131 45.9999 28.7384 46 27.2002V18.7998C45.9999 15.6 43.4 13.0001 40.2002 13H31.7998ZM40.4004 15C42.3901 15.0002 43.9998 16.6099 44 18.5996V27.4004C43.9999 28.355 43.6204 29.2703 42.9453 29.9453C42.2703 30.6204 41.355 30.9999 40.4004 31H31.5996C29.6099 30.9998 28.0002 29.3901 28 27.4004V18.5996C28.0001 17.645 28.3796 16.7297 29.0547 16.0547C29.7297 15.3796 30.645 15.0001 31.5996 15H40.4004ZM36 18C34.6739 18 33.4025 18.5272 32.4648 19.4648C31.5272 20.4025 31 21.6739 31 23C31 24.3261 31.5272 25.5975 32.4648 26.5352C33.4025 27.4728 34.6739 28 36 28C37.3261 28 38.5975 27.4728 39.5352 26.5352C40.4728 25.5975 41 24.3261 41 23C41 21.6739 40.4728 20.4025 39.5352 19.4648C38.5975 18.5272 37.3261 18 36 18ZM36 20C36.7956 20 37.5585 20.3163 38.1211 20.8789C38.6837 21.4415 39 22.2044 39 23C39 23.7956 38.6837 24.5585 38.1211 25.1211C37.5585 25.6837 36.7956 26 36 26C35.2044 26 34.4415 25.6837 33.8789 25.1211C33.3163 24.5585 33 23.7956 33 23C33 22.2044 33.3163 21.4415 33.8789 20.8789C34.4415 20.3163 35.2044 20 36 20ZM41.25 16.5C40.9185 16.5 40.6006 16.6318 40.3662 16.8662C40.1318 17.1006 40 17.4185 40 17.75C40 18.0815 40.1318 18.3994 40.3662 18.6338C40.6006 18.8682 40.9185 19 41.25 19C41.5815 19 41.8994 18.8682 42.1338 18.6338C42.3682 18.3994 42.5 18.0815 42.5 17.75C42.5 17.4185 42.3682 17.1006 42.1338 16.8662C41.8994 16.6318 41.5815 16.5 41.25 16.5Z" fill="#F53838"/>
</g>
<defs>
<filter id="filter0_d_73_34" x="0" y="0" width="72" height="72" filterUnits="userSpaceOnUse" color-interpolation-filters="sRGB">
<feFlood flood-opacity="0" result="BackgroundImageFix"/>
<feColorMatrix in="SourceAlpha" type="matrix" values="0 0 0 0 0 0 0 0 0 0 0 0 0 0 0 0 0 0 127 0" result="hardAlpha"/>
<feOffset dy="13"/>
<feGaussianBlur stdDeviation="9"/>
<feColorMatrix type="matrix" values="0 0 0 0 0.0658854 0 0 0 0 0.0730469 0 0 0 0 0.1375 0 0 0 0.08 0"/>
<feBlend mode="normal" in2="BackgroundImageFix" result="effect1_dropShadow_73_34"/>
<feBlend mode="normal" in="SourceGraphic" in2="effect1_dropShadow_73_34" result="shape"/>
</filter>
</defs>
</svg>
