<svg width="72" height="72" viewBox="0 0 72 72" fill="none" xmlns="http://www.w3.org/2000/svg">
<g filter="url(#filter0_d_73_44)">
<path d="M36 5C45.9411 5 54 13.0589 54 23C54 32.9411 45.9411 41 36 41C26.0589 41 18 32.9411 18 23C18 13.0589 26.0589 5 36 5ZM41.75 13.9375L36.6943 19.7285L32.3281 13.9385H26L33.5586 23.8486L26.3926 32.0625H29.4629L34.9912 25.7275L39.8281 32.0625H46L38.1172 21.6143L44.8174 13.9375H41.75ZM31.4004 15.6816L42.3711 30.2227H40.6719L29.5771 15.6816H31.4004Z" fill="#F53838"/>
</g>
<defs>
<filter id="filter0_d_73_44" x="0" y="0" width="72" height="72" filterUnits="userSpaceOnUse" color-interpolation-filters="sRGB">
<feFlood flood-opacity="0" result="BackgroundImageFix"/>
<feColorMatrix in="SourceAlpha" type="matrix" values="0 0 0 0 0 0 0 0 0 0 0 0 0 0 0 0 0 0 127 0" result="hardAlpha"/>
<feOffset dy="13"/>
<feGaussianBlur stdDeviation="9"/>
<feColorMatrix type="matrix" values="0 0 0 0 0.0658854 0 0 0 0 0.0730469 0 0 0 0 0.1375 0 0 0 0.08 0"/>
<feBlend mode="normal" in2="BackgroundImageFix" result="effect1_dropShadow_73_44"/>
<feBlend mode="normal" in="SourceGraphic" in2="effect1_dropShadow_73_44" result="shape"/>
</filter>
</defs>
</svg>
